<svg width="50" height="50" viewBox="0 0 50 50" fill="none" xmlns="http://www.w3.org/2000/svg">
<rect width="50" height="50" fill="#E5E5E5"/>
<g clip-path="url(#clip0_0_1)">
<rect width="1440" height="7317" transform="translate(-110 -2136)" fill="white"/>
<rect x="-110" y="-2136" width="1440" height="7317" fill="#222222"/>
<rect x="-40" y="-34" width="400" height="400" rx="20" fill="white"/>
<g filter="url(#filter0_d_0_1)">
<rect x="-40" y="-34" width="400" height="98" rx="20" fill="black"/>
</g>
<path d="M45.8334 20.8334V31.25C45.8334 41.6667 41.6668 45.8334 31.2501 45.8334H18.7501C8.33342 45.8334 4.16675 41.6667 4.16675 31.25V18.75C4.16675 8.33335 8.33342 4.16669 18.7501 4.16669H29.1667" stroke="#FF001E" stroke-width="2" stroke-linecap="round" stroke-linejoin="round"/>
<path d="M45.8334 20.8334H37.5001C31.2501 20.8334 29.1667 18.75 29.1667 12.5V4.16669L45.8334 20.8334Z" stroke="#FF001E" stroke-width="2" stroke-linecap="round" stroke-linejoin="round"/>
<path d="M14.5833 27.0833H27.0833" stroke="#FF001E" stroke-width="2" stroke-linecap="square" stroke-linejoin="round"/>
<path d="M14.5833 35.4167H22.9166" stroke="#FF001E" stroke-width="2" stroke-linecap="square" stroke-linejoin="round"/>
</g>
<defs>
<filter id="filter0_d_0_1" x="-48" y="-34" width="416" height="116" filterUnits="userSpaceOnUse" color-interpolation-filters="sRGB">
<feFlood flood-opacity="0" result="BackgroundImageFix"/>
<feColorMatrix in="SourceAlpha" type="matrix" values="0 0 0 0 0 0 0 0 0 0 0 0 0 0 0 0 0 0 127 0" result="hardAlpha"/>
<feOffset dy="10"/>
<feGaussianBlur stdDeviation="4"/>
<feComposite in2="hardAlpha" operator="out"/>
<feColorMatrix type="matrix" values="0 0 0 0 0 0 0 0 0 0 0 0 0 0 0 0 0 0 0.45 0"/>
<feBlend mode="normal" in2="BackgroundImageFix" result="effect1_dropShadow_0_1"/>
<feBlend mode="normal" in="SourceGraphic" in2="effect1_dropShadow_0_1" result="shape"/>
</filter>
<clipPath id="clip0_0_1">
<rect width="1440" height="7317" fill="white" transform="translate(-110 -2136)"/>
</clipPath>
</defs>
</svg>
